<mxfile host="app.diagrams.net" modified="2021-12-27T06:08:58.543Z" agent="5.0 (Windows)" etag="gOW6YHQUel8GcR-kMCsx" version="16.1.0" type="github">
  <diagram name="Page-1" id="e7e014a7-5840-1c2e-5031-d8a46d1fe8dd">
    <mxGraphModel dx="1550" dy="824" grid="1" gridSize="10" guides="1" tooltips="1" connect="1" arrows="1" fold="1" page="1" pageScale="1" pageWidth="1169" pageHeight="826" background="none" math="0" shadow="0">
      <root>
        <mxCell id="0" />
        <mxCell id="1" parent="0" />
        <mxCell id="Vo2G4r-Y2g2GesqDZf4C-41" value="«interface»&lt;br&gt;&lt;b&gt;BeanDefinition&lt;/b&gt;" style="html=1;" parent="1" vertex="1">
          <mxGeometry x="540" y="200" width="110" height="50" as="geometry" />
        </mxCell>
        <mxCell id="Vo2G4r-Y2g2GesqDZf4C-42" value="AbstractBeanDefinition" style="swimlane;fontStyle=1;align=center;verticalAlign=top;childLayout=stackLayout;horizontal=1;startSize=26;horizontalStack=0;resizeParent=1;resizeParentMax=0;resizeLast=0;collapsible=1;marginBottom=0;" parent="1" vertex="1">
          <mxGeometry x="360" y="310" width="160" height="34" as="geometry" />
        </mxCell>
        <mxCell id="Vo2G4r-Y2g2GesqDZf4C-44" value="" style="line;strokeWidth=1;fillColor=none;align=left;verticalAlign=middle;spacingTop=-1;spacingLeft=3;spacingRight=3;rotatable=0;labelPosition=right;points=[];portConstraint=eastwest;" parent="Vo2G4r-Y2g2GesqDZf4C-42" vertex="1">
          <mxGeometry y="26" width="160" height="8" as="geometry" />
        </mxCell>
        <mxCell id="Vo2G4r-Y2g2GesqDZf4C-46" value="" style="endArrow=block;dashed=1;endFill=0;endSize=12;html=1;rounded=0;exitX=0.5;exitY=0;exitDx=0;exitDy=0;entryX=0.5;entryY=1;entryDx=0;entryDy=0;" parent="1" source="Vo2G4r-Y2g2GesqDZf4C-42" target="Vo2G4r-Y2g2GesqDZf4C-41" edge="1">
          <mxGeometry width="160" relative="1" as="geometry">
            <mxPoint x="700" y="320" as="sourcePoint" />
            <mxPoint x="860" y="320" as="targetPoint" />
          </mxGeometry>
        </mxCell>
        <mxCell id="Vo2G4r-Y2g2GesqDZf4C-47" value="" style="endArrow=block;dashed=1;endFill=0;endSize=12;html=1;rounded=0;" parent="1" edge="1">
          <mxGeometry width="160" relative="1" as="geometry">
            <mxPoint x="60" y="212.5" as="sourcePoint" />
            <mxPoint x="220" y="212.5" as="targetPoint" />
          </mxGeometry>
        </mxCell>
        <mxCell id="Vo2G4r-Y2g2GesqDZf4C-49" value="&lt;div&gt;implemention&lt;/div&gt;" style="text;html=1;strokeColor=none;fillColor=none;align=center;verticalAlign=middle;whiteSpace=wrap;rounded=0;" parent="1" vertex="1">
          <mxGeometry x="240" y="198" width="60" height="30" as="geometry" />
        </mxCell>
        <mxCell id="Vo2G4r-Y2g2GesqDZf4C-50" value="AnnotatedGenericBeanDefinition" style="swimlane;fontStyle=1;align=center;verticalAlign=top;childLayout=stackLayout;horizontal=1;startSize=26;horizontalStack=0;resizeParent=1;resizeParentMax=0;resizeLast=0;collapsible=1;marginBottom=0;" parent="1" vertex="1">
          <mxGeometry x="57" y="546" width="200" height="34" as="geometry" />
        </mxCell>
        <mxCell id="Vo2G4r-Y2g2GesqDZf4C-52" value="" style="line;strokeWidth=1;fillColor=none;align=left;verticalAlign=middle;spacingTop=-1;spacingLeft=3;spacingRight=3;rotatable=0;labelPosition=right;points=[];portConstraint=eastwest;" parent="Vo2G4r-Y2g2GesqDZf4C-50" vertex="1">
          <mxGeometry y="26" width="200" height="8" as="geometry" />
        </mxCell>
        <mxCell id="Vo2G4r-Y2g2GesqDZf4C-58" value="Extends" style="endArrow=block;endSize=16;endFill=0;html=1;rounded=0;" parent="1" edge="1">
          <mxGeometry width="160" relative="1" as="geometry">
            <mxPoint x="60" y="242.5" as="sourcePoint" />
            <mxPoint x="220" y="242.5" as="targetPoint" />
          </mxGeometry>
        </mxCell>
        <mxCell id="Vo2G4r-Y2g2GesqDZf4C-59" value="extends" style="text;html=1;strokeColor=none;fillColor=none;align=center;verticalAlign=middle;whiteSpace=wrap;rounded=0;" parent="1" vertex="1">
          <mxGeometry x="240" y="228" width="60" height="30" as="geometry" />
        </mxCell>
        <mxCell id="Vo2G4r-Y2g2GesqDZf4C-60" value="ScannedGenericBeanDefinition" style="swimlane;fontStyle=1;align=center;verticalAlign=top;childLayout=stackLayout;horizontal=1;startSize=26;horizontalStack=0;resizeParent=1;resizeParentMax=0;resizeLast=0;collapsible=1;marginBottom=0;" parent="1" vertex="1">
          <mxGeometry x="287" y="546" width="200" height="34" as="geometry" />
        </mxCell>
        <mxCell id="Vo2G4r-Y2g2GesqDZf4C-61" value="" style="line;strokeWidth=1;fillColor=none;align=left;verticalAlign=middle;spacingTop=-1;spacingLeft=3;spacingRight=3;rotatable=0;labelPosition=right;points=[];portConstraint=eastwest;" parent="Vo2G4r-Y2g2GesqDZf4C-60" vertex="1">
          <mxGeometry y="26" width="200" height="8" as="geometry" />
        </mxCell>
        <mxCell id="Vo2G4r-Y2g2GesqDZf4C-63" value="GenericBeanDefinition" style="swimlane;fontStyle=1;align=center;verticalAlign=top;childLayout=stackLayout;horizontal=1;startSize=26;horizontalStack=0;resizeParent=1;resizeParentMax=0;resizeLast=0;collapsible=1;marginBottom=0;" parent="1" vertex="1">
          <mxGeometry x="197" y="413" width="160" height="34" as="geometry" />
        </mxCell>
        <mxCell id="Vo2G4r-Y2g2GesqDZf4C-65" value="" style="line;strokeWidth=1;fillColor=none;align=left;verticalAlign=middle;spacingTop=-1;spacingLeft=3;spacingRight=3;rotatable=0;labelPosition=right;points=[];portConstraint=eastwest;" parent="Vo2G4r-Y2g2GesqDZf4C-63" vertex="1">
          <mxGeometry y="26" width="160" height="8" as="geometry" />
        </mxCell>
        <mxCell id="Vo2G4r-Y2g2GesqDZf4C-67" value="Extends" style="endArrow=block;endSize=16;endFill=0;html=1;rounded=0;entryX=0.25;entryY=1;entryDx=0;entryDy=0;" parent="1" source="Vo2G4r-Y2g2GesqDZf4C-63" target="Vo2G4r-Y2g2GesqDZf4C-42" edge="1">
          <mxGeometry width="160" relative="1" as="geometry">
            <mxPoint x="7" y="470" as="sourcePoint" />
            <mxPoint x="277" y="344" as="targetPoint" />
          </mxGeometry>
        </mxCell>
        <mxCell id="Vo2G4r-Y2g2GesqDZf4C-68" value="Extends" style="endArrow=block;endSize=16;endFill=0;html=1;rounded=0;entryX=0.25;entryY=1;entryDx=0;entryDy=0;exitX=0.5;exitY=0;exitDx=0;exitDy=0;" parent="1" source="Vo2G4r-Y2g2GesqDZf4C-50" target="Vo2G4r-Y2g2GesqDZf4C-63" edge="1">
          <mxGeometry width="160" relative="1" as="geometry">
            <mxPoint x="-13" y="460" as="sourcePoint" />
            <mxPoint x="147" y="460" as="targetPoint" />
          </mxGeometry>
        </mxCell>
        <mxCell id="Vo2G4r-Y2g2GesqDZf4C-69" value="Extends" style="endArrow=block;endSize=16;endFill=0;html=1;rounded=0;exitX=0.5;exitY=0;exitDx=0;exitDy=0;entryX=0.75;entryY=1;entryDx=0;entryDy=0;" parent="1" source="Vo2G4r-Y2g2GesqDZf4C-60" target="Vo2G4r-Y2g2GesqDZf4C-63" edge="1">
          <mxGeometry width="160" relative="1" as="geometry">
            <mxPoint x="-13" y="300" as="sourcePoint" />
            <mxPoint x="277" y="450" as="targetPoint" />
          </mxGeometry>
        </mxCell>
        <mxCell id="Vo2G4r-Y2g2GesqDZf4C-70" value="RootBeanDefinition" style="swimlane;fontStyle=1;align=center;verticalAlign=top;childLayout=stackLayout;horizontal=1;startSize=26;horizontalStack=0;resizeParent=1;resizeParentMax=0;resizeLast=0;collapsible=1;marginBottom=0;" parent="1" vertex="1">
          <mxGeometry x="540" y="413" width="160" height="34" as="geometry" />
        </mxCell>
        <mxCell id="Vo2G4r-Y2g2GesqDZf4C-72" value="" style="line;strokeWidth=1;fillColor=none;align=left;verticalAlign=middle;spacingTop=-1;spacingLeft=3;spacingRight=3;rotatable=0;labelPosition=right;points=[];portConstraint=eastwest;" parent="Vo2G4r-Y2g2GesqDZf4C-70" vertex="1">
          <mxGeometry y="26" width="160" height="8" as="geometry" />
        </mxCell>
        <mxCell id="Vo2G4r-Y2g2GesqDZf4C-74" value="Extends" style="endArrow=block;endSize=16;endFill=0;html=1;rounded=0;exitX=0.5;exitY=0;exitDx=0;exitDy=0;entryX=0.75;entryY=1;entryDx=0;entryDy=0;" parent="1" source="Vo2G4r-Y2g2GesqDZf4C-70" target="Vo2G4r-Y2g2GesqDZf4C-42" edge="1">
          <mxGeometry width="160" relative="1" as="geometry">
            <mxPoint x="70" y="84.5" as="sourcePoint" />
            <mxPoint x="230" y="84.5" as="targetPoint" />
          </mxGeometry>
        </mxCell>
        <mxCell id="Vo2G4r-Y2g2GesqDZf4C-75" value="ChildBeanDefinition" style="swimlane;fontStyle=1;align=center;verticalAlign=top;childLayout=stackLayout;horizontal=1;startSize=26;horizontalStack=0;resizeParent=1;resizeParentMax=0;resizeLast=0;collapsible=1;marginBottom=0;" parent="1" vertex="1">
          <mxGeometry x="370" y="413" width="160" height="34" as="geometry" />
        </mxCell>
        <mxCell id="Vo2G4r-Y2g2GesqDZf4C-76" value="" style="line;strokeWidth=1;fillColor=none;align=left;verticalAlign=middle;spacingTop=-1;spacingLeft=3;spacingRight=3;rotatable=0;labelPosition=right;points=[];portConstraint=eastwest;" parent="Vo2G4r-Y2g2GesqDZf4C-75" vertex="1">
          <mxGeometry y="26" width="160" height="8" as="geometry" />
        </mxCell>
        <mxCell id="Vo2G4r-Y2g2GesqDZf4C-77" value="Extends" style="endArrow=block;endSize=16;endFill=0;html=1;rounded=0;entryX=0.5;entryY=1;entryDx=0;entryDy=0;" parent="1" target="Vo2G4r-Y2g2GesqDZf4C-42" edge="1">
          <mxGeometry width="160" relative="1" as="geometry">
            <mxPoint x="450" y="411" as="sourcePoint" />
            <mxPoint x="230" y="84.5" as="targetPoint" />
          </mxGeometry>
        </mxCell>
        <mxCell id="Vo2G4r-Y2g2GesqDZf4C-79" value="&lt;div align=&quot;left&quot;&gt;当使用register方法注册类生成的BeanDefinition使用的类型是AnnotatedGenericBeanDefinition&lt;/div&gt;" style="text;html=1;strokeColor=none;fillColor=none;align=left;verticalAlign=middle;whiteSpace=wrap;rounded=0;" parent="1" vertex="1">
          <mxGeometry x="57" y="590" width="200" height="30" as="geometry" />
        </mxCell>
        <mxCell id="Vo2G4r-Y2g2GesqDZf4C-80" value="&lt;div align=&quot;left&quot;&gt;当通过scan方法扫描到的类生成的BeanDefinition使用的类型是ScannedGenericBeanDefinition&lt;/div&gt;" style="text;html=1;strokeColor=none;fillColor=none;align=left;verticalAlign=middle;whiteSpace=wrap;rounded=0;" parent="1" vertex="1">
          <mxGeometry x="287" y="590" width="200" height="30" as="geometry" />
        </mxCell>
        <mxCell id="Vo2G4r-Y2g2GesqDZf4C-81" value="&lt;div align=&quot;left&quot;&gt;从Spring2.5版本之后ChildBeanDefinition就很少使用了&lt;/div&gt;" style="text;html=1;strokeColor=none;fillColor=none;align=left;verticalAlign=middle;whiteSpace=wrap;rounded=0;" parent="1" vertex="1">
          <mxGeometry x="370" y="460" width="160" height="30" as="geometry" />
        </mxCell>
        <mxCell id="Vo2G4r-Y2g2GesqDZf4C-82" value="RootBeanDefinition和BeanDefinition合并有关" style="text;html=1;strokeColor=none;fillColor=none;align=left;verticalAlign=middle;whiteSpace=wrap;rounded=0;" parent="1" vertex="1">
          <mxGeometry x="540" y="460" width="160" height="30" as="geometry" />
        </mxCell>
        <mxCell id="czzJCi6G03DJHaY_6lY2-1" value="«interface»&lt;br&gt;&lt;div&gt;&lt;b&gt;BeanFacotry&lt;/b&gt;&lt;/div&gt;" style="html=1;" parent="1" vertex="1">
          <mxGeometry x="980" y="200" width="110" height="50" as="geometry" />
        </mxCell>
        <mxCell id="czzJCi6G03DJHaY_6lY2-2" value="&lt;div&gt;«interface»&lt;span style=&quot;color: #000000&quot;&gt;&lt;br&gt;&lt;/span&gt;&lt;/div&gt;&lt;div&gt;&lt;b&gt;&lt;span style=&quot;color: #000000&quot;&gt;ApplicationContext&lt;/span&gt;&lt;/b&gt;&lt;/div&gt;" style="html=1;" parent="1" vertex="1">
          <mxGeometry x="720" y="405" width="590" height="50" as="geometry" />
        </mxCell>
        <mxCell id="czzJCi6G03DJHaY_6lY2-3" value="&lt;div&gt;«interface»&lt;span style=&quot;color: #000000&quot;&gt;&lt;br&gt;&lt;/span&gt;&lt;/div&gt;&lt;div&gt;&lt;b&gt;&lt;span style=&quot;color: #000000&quot;&gt;ListableBeanFactroy&lt;/span&gt;&lt;/b&gt;&lt;/div&gt;" style="html=1;" parent="1" vertex="1">
          <mxGeometry x="790" y="302" width="130" height="50" as="geometry" />
        </mxCell>
        <mxCell id="czzJCi6G03DJHaY_6lY2-4" value="&lt;div&gt;«interface»&lt;span style=&quot;color: #000000&quot;&gt;&lt;/span&gt;&lt;span style=&quot;color: #000000&quot;&gt;&lt;br&gt;&lt;/span&gt;&lt;/div&gt;&lt;div&gt;&lt;b&gt;&lt;span style=&quot;color: #000000&quot;&gt;HierarchicalBeanFactory&lt;/span&gt;&lt;/b&gt;&lt;/div&gt;" style="html=1;" parent="1" vertex="1">
          <mxGeometry x="950" y="302" width="160" height="50" as="geometry" />
        </mxCell>
        <mxCell id="czzJCi6G03DJHaY_6lY2-5" value="Extends" style="endArrow=block;endSize=16;endFill=0;html=1;rounded=0;exitX=0.5;exitY=0;exitDx=0;exitDy=0;entryX=0.25;entryY=1;entryDx=0;entryDy=0;" parent="1" source="czzJCi6G03DJHaY_6lY2-3" target="czzJCi6G03DJHaY_6lY2-1" edge="1">
          <mxGeometry width="160" relative="1" as="geometry">
            <mxPoint x="70" y="252.5" as="sourcePoint" />
            <mxPoint x="230" y="252.5" as="targetPoint" />
          </mxGeometry>
        </mxCell>
        <mxCell id="czzJCi6G03DJHaY_6lY2-7" value="Extends" style="endArrow=block;endSize=16;endFill=0;html=1;rounded=0;entryX=0.5;entryY=1;entryDx=0;entryDy=0;exitX=0.5;exitY=0;exitDx=0;exitDy=0;" parent="1" source="czzJCi6G03DJHaY_6lY2-4" target="czzJCi6G03DJHaY_6lY2-1" edge="1">
          <mxGeometry width="160" relative="1" as="geometry">
            <mxPoint x="70" y="252.5" as="sourcePoint" />
            <mxPoint x="230" y="252.5" as="targetPoint" />
          </mxGeometry>
        </mxCell>
        <mxCell id="czzJCi6G03DJHaY_6lY2-8" value="Extends" style="endArrow=block;endSize=16;endFill=0;html=1;rounded=0;entryX=0.5;entryY=1;entryDx=0;entryDy=0;exitX=0.5;exitY=0;exitDx=0;exitDy=0;" parent="1" source="czzJCi6G03DJHaY_6lY2-2" target="czzJCi6G03DJHaY_6lY2-3" edge="1">
          <mxGeometry width="160" relative="1" as="geometry">
            <mxPoint x="70" y="252.5" as="sourcePoint" />
            <mxPoint x="230" y="252.5" as="targetPoint" />
          </mxGeometry>
        </mxCell>
        <mxCell id="czzJCi6G03DJHaY_6lY2-9" value="Extends" style="endArrow=block;endSize=16;endFill=0;html=1;rounded=0;entryX=0.5;entryY=1;entryDx=0;entryDy=0;exitX=0.5;exitY=0;exitDx=0;exitDy=0;" parent="1" source="czzJCi6G03DJHaY_6lY2-2" target="czzJCi6G03DJHaY_6lY2-4" edge="1">
          <mxGeometry width="160" relative="1" as="geometry">
            <mxPoint x="70" y="252.5" as="sourcePoint" />
            <mxPoint x="230" y="252.5" as="targetPoint" />
          </mxGeometry>
        </mxCell>
        <mxCell id="czzJCi6G03DJHaY_6lY2-10" value="AnnotationConfigApplicationContext" style="swimlane;fontStyle=1;align=center;verticalAlign=top;childLayout=stackLayout;horizontal=1;startSize=26;horizontalStack=0;resizeParent=1;resizeParentMax=0;resizeLast=0;collapsible=1;marginBottom=0;" parent="1" vertex="1">
          <mxGeometry x="1060" y="970" width="220" height="34" as="geometry" />
        </mxCell>
        <mxCell id="czzJCi6G03DJHaY_6lY2-12" value="" style="line;strokeWidth=1;fillColor=none;align=left;verticalAlign=middle;spacingTop=-1;spacingLeft=3;spacingRight=3;rotatable=0;labelPosition=right;points=[];portConstraint=eastwest;" parent="czzJCi6G03DJHaY_6lY2-10" vertex="1">
          <mxGeometry y="26" width="220" height="8" as="geometry" />
        </mxCell>
        <mxCell id="czzJCi6G03DJHaY_6lY2-14" value="ClassPathXmlApplicationContext" style="swimlane;fontStyle=1;align=center;verticalAlign=top;childLayout=stackLayout;horizontal=1;startSize=26;horizontalStack=0;resizeParent=1;resizeParentMax=0;resizeLast=0;collapsible=1;marginBottom=0;" parent="1" vertex="1">
          <mxGeometry x="755" y="970" width="220" height="34" as="geometry" />
        </mxCell>
        <mxCell id="czzJCi6G03DJHaY_6lY2-15" value="" style="line;strokeWidth=1;fillColor=none;align=left;verticalAlign=middle;spacingTop=-1;spacingLeft=3;spacingRight=3;rotatable=0;labelPosition=right;points=[];portConstraint=eastwest;" parent="czzJCi6G03DJHaY_6lY2-14" vertex="1">
          <mxGeometry y="26" width="220" height="8" as="geometry" />
        </mxCell>
        <mxCell id="czzJCi6G03DJHaY_6lY2-16" value="AbstractXmlApplicationContext" style="swimlane;fontStyle=1;align=center;verticalAlign=top;childLayout=stackLayout;horizontal=1;startSize=26;horizontalStack=0;resizeParent=1;resizeParentMax=0;resizeLast=0;collapsible=1;marginBottom=0;" parent="1" vertex="1">
          <mxGeometry x="755" y="867" width="220" height="34" as="geometry" />
        </mxCell>
        <mxCell id="czzJCi6G03DJHaY_6lY2-17" value="" style="line;strokeWidth=1;fillColor=none;align=left;verticalAlign=middle;spacingTop=-1;spacingLeft=3;spacingRight=3;rotatable=0;labelPosition=right;points=[];portConstraint=eastwest;" parent="czzJCi6G03DJHaY_6lY2-16" vertex="1">
          <mxGeometry y="26" width="220" height="8" as="geometry" />
        </mxCell>
        <mxCell id="czzJCi6G03DJHaY_6lY2-18" value="AbstractRefreshableConfigApplicationContext" style="swimlane;fontStyle=1;align=center;verticalAlign=top;childLayout=stackLayout;horizontal=1;startSize=26;horizontalStack=0;resizeParent=1;resizeParentMax=0;resizeLast=0;collapsible=1;marginBottom=0;" parent="1" vertex="1">
          <mxGeometry x="720" y="773" width="290" height="34" as="geometry" />
        </mxCell>
        <mxCell id="czzJCi6G03DJHaY_6lY2-19" value="" style="line;strokeWidth=1;fillColor=none;align=left;verticalAlign=middle;spacingTop=-1;spacingLeft=3;spacingRight=3;rotatable=0;labelPosition=right;points=[];portConstraint=eastwest;" parent="czzJCi6G03DJHaY_6lY2-18" vertex="1">
          <mxGeometry y="26" width="290" height="8" as="geometry" />
        </mxCell>
        <mxCell id="czzJCi6G03DJHaY_6lY2-20" value="AbstractRefreshableApplicationContext" style="swimlane;fontStyle=1;align=center;verticalAlign=top;childLayout=stackLayout;horizontal=1;startSize=26;horizontalStack=0;resizeParent=1;resizeParentMax=0;resizeLast=0;collapsible=1;marginBottom=0;" parent="1" vertex="1">
          <mxGeometry x="745" y="670" width="240" height="34" as="geometry" />
        </mxCell>
        <mxCell id="czzJCi6G03DJHaY_6lY2-21" value="" style="line;strokeWidth=1;fillColor=none;align=left;verticalAlign=middle;spacingTop=-1;spacingLeft=3;spacingRight=3;rotatable=0;labelPosition=right;points=[];portConstraint=eastwest;" parent="czzJCi6G03DJHaY_6lY2-20" vertex="1">
          <mxGeometry y="26" width="240" height="8" as="geometry" />
        </mxCell>
        <mxCell id="czzJCi6G03DJHaY_6lY2-22" value="AbstractApplicationContext" style="swimlane;fontStyle=1;align=center;verticalAlign=top;childLayout=stackLayout;horizontal=1;startSize=26;horizontalStack=0;resizeParent=1;resizeParentMax=0;resizeLast=0;collapsible=1;marginBottom=0;" parent="1" vertex="1">
          <mxGeometry x="720" y="590" width="590" height="34" as="geometry" />
        </mxCell>
        <mxCell id="czzJCi6G03DJHaY_6lY2-23" value="" style="line;strokeWidth=1;fillColor=none;align=left;verticalAlign=middle;spacingTop=-1;spacingLeft=3;spacingRight=3;rotatable=0;labelPosition=right;points=[];portConstraint=eastwest;" parent="czzJCi6G03DJHaY_6lY2-22" vertex="1">
          <mxGeometry y="26" width="590" height="8" as="geometry" />
        </mxCell>
        <mxCell id="czzJCi6G03DJHaY_6lY2-24" value="&lt;div&gt;«interface»&lt;span style=&quot;color: #000000&quot;&gt;&lt;/span&gt;&lt;span style=&quot;color: #000000&quot;&gt;&lt;/span&gt;&lt;span style=&quot;color: #000000&quot;&gt;&lt;br&gt;&lt;/span&gt;&lt;/div&gt;&lt;div&gt;&lt;b&gt;&lt;span style=&quot;color: #000000&quot;&gt;ConfigurableApplicationContext&lt;/span&gt;&lt;/b&gt;&lt;/div&gt;" style="html=1;" parent="1" vertex="1">
          <mxGeometry x="720" y="510" width="590" height="30" as="geometry" />
        </mxCell>
        <mxCell id="czzJCi6G03DJHaY_6lY2-25" value="GenericApplicationContext" style="swimlane;fontStyle=1;align=center;verticalAlign=top;childLayout=stackLayout;horizontal=1;startSize=26;horizontalStack=0;resizeParent=1;resizeParentMax=0;resizeLast=0;collapsible=1;marginBottom=0;" parent="1" vertex="1">
          <mxGeometry x="1060" y="867" width="220" height="34" as="geometry">
            <mxRectangle x="1080" y="867" width="190" height="26" as="alternateBounds" />
          </mxGeometry>
        </mxCell>
        <mxCell id="czzJCi6G03DJHaY_6lY2-26" value="" style="line;strokeWidth=1;fillColor=none;align=left;verticalAlign=middle;spacingTop=-1;spacingLeft=3;spacingRight=3;rotatable=0;labelPosition=right;points=[];portConstraint=eastwest;" parent="czzJCi6G03DJHaY_6lY2-25" vertex="1">
          <mxGeometry y="26" width="220" height="8" as="geometry" />
        </mxCell>
        <mxCell id="czzJCi6G03DJHaY_6lY2-27" value="Extends" style="endArrow=block;endSize=16;endFill=0;html=1;rounded=0;entryX=0.5;entryY=1;entryDx=0;entryDy=0;exitX=0.5;exitY=0;exitDx=0;exitDy=0;" parent="1" source="czzJCi6G03DJHaY_6lY2-24" target="czzJCi6G03DJHaY_6lY2-2" edge="1">
          <mxGeometry width="160" relative="1" as="geometry">
            <mxPoint x="70" y="252.5" as="sourcePoint" />
            <mxPoint x="230" y="252.5" as="targetPoint" />
          </mxGeometry>
        </mxCell>
        <mxCell id="czzJCi6G03DJHaY_6lY2-28" value="" style="endArrow=block;dashed=1;endFill=0;endSize=12;html=1;rounded=0;exitX=0.5;exitY=0;exitDx=0;exitDy=0;entryX=0.5;entryY=1;entryDx=0;entryDy=0;" parent="1" source="czzJCi6G03DJHaY_6lY2-22" target="czzJCi6G03DJHaY_6lY2-24" edge="1">
          <mxGeometry width="160" relative="1" as="geometry">
            <mxPoint x="450" y="320" as="sourcePoint" />
            <mxPoint x="605" y="260" as="targetPoint" />
          </mxGeometry>
        </mxCell>
        <mxCell id="czzJCi6G03DJHaY_6lY2-29" value="Extends" style="endArrow=block;endSize=16;endFill=0;html=1;rounded=0;entryX=0.25;entryY=1;entryDx=0;entryDy=0;" parent="1" source="czzJCi6G03DJHaY_6lY2-20" target="czzJCi6G03DJHaY_6lY2-22" edge="1">
          <mxGeometry width="160" relative="1" as="geometry">
            <mxPoint x="865" y="520" as="sourcePoint" />
            <mxPoint x="865" y="465" as="targetPoint" />
          </mxGeometry>
        </mxCell>
        <mxCell id="czzJCi6G03DJHaY_6lY2-30" value="Extends" style="endArrow=block;endSize=16;endFill=0;html=1;rounded=0;exitX=0.5;exitY=0;exitDx=0;exitDy=0;entryX=0.5;entryY=0.875;entryDx=0;entryDy=0;entryPerimeter=0;" parent="1" source="czzJCi6G03DJHaY_6lY2-18" target="czzJCi6G03DJHaY_6lY2-21" edge="1">
          <mxGeometry width="160" relative="1" as="geometry">
            <mxPoint x="865" y="680" as="sourcePoint" />
            <mxPoint x="855" y="710" as="targetPoint" />
          </mxGeometry>
        </mxCell>
        <mxCell id="czzJCi6G03DJHaY_6lY2-32" value="Extends" style="endArrow=block;endSize=16;endFill=0;html=1;rounded=0;exitX=0.5;exitY=0;exitDx=0;exitDy=0;entryX=0.5;entryY=1;entryDx=0;entryDy=0;" parent="1" source="czzJCi6G03DJHaY_6lY2-16" target="czzJCi6G03DJHaY_6lY2-18" edge="1">
          <mxGeometry x="-0.2286" width="160" relative="1" as="geometry">
            <mxPoint x="854.5" y="867" as="sourcePoint" />
            <mxPoint x="855" y="800" as="targetPoint" />
            <mxPoint as="offset" />
          </mxGeometry>
        </mxCell>
        <mxCell id="czzJCi6G03DJHaY_6lY2-33" value="Extends" style="endArrow=block;endSize=16;endFill=0;html=1;rounded=0;exitX=0.5;exitY=0;exitDx=0;exitDy=0;entryX=0.5;entryY=1;entryDx=0;entryDy=0;" parent="1" source="czzJCi6G03DJHaY_6lY2-14" target="czzJCi6G03DJHaY_6lY2-16" edge="1">
          <mxGeometry x="-0.2286" width="160" relative="1" as="geometry">
            <mxPoint x="854.5" y="968" as="sourcePoint" />
            <mxPoint x="855" y="901" as="targetPoint" />
            <mxPoint as="offset" />
          </mxGeometry>
        </mxCell>
        <mxCell id="czzJCi6G03DJHaY_6lY2-34" value="Extends" style="endArrow=block;endSize=16;endFill=0;html=1;rounded=0;entryX=0.5;entryY=1;entryDx=0;entryDy=0;exitX=0.5;exitY=0;exitDx=0;exitDy=0;" parent="1" source="czzJCi6G03DJHaY_6lY2-10" target="czzJCi6G03DJHaY_6lY2-25" edge="1">
          <mxGeometry x="-0.2286" width="160" relative="1" as="geometry">
            <mxPoint x="1190" y="968" as="sourcePoint" />
            <mxPoint x="1190" y="901" as="targetPoint" />
            <mxPoint as="offset" />
          </mxGeometry>
        </mxCell>
        <mxCell id="czzJCi6G03DJHaY_6lY2-35" value="Extends" style="endArrow=block;endSize=16;endFill=0;html=1;rounded=0;exitX=0.5;exitY=0;exitDx=0;exitDy=0;entryX=0.756;entryY=0.875;entryDx=0;entryDy=0;entryPerimeter=0;" parent="1" source="czzJCi6G03DJHaY_6lY2-25" target="czzJCi6G03DJHaY_6lY2-23" edge="1">
          <mxGeometry x="-0.2286" width="160" relative="1" as="geometry">
            <mxPoint x="1190" y="860" as="sourcePoint" />
            <mxPoint x="1170" y="630" as="targetPoint" />
            <mxPoint as="offset" />
          </mxGeometry>
        </mxCell>
        <mxCell id="4dsy0SderSoY3Ezzu2ZR-1" value="&lt;div&gt;«interface»&lt;span style=&quot;color: #000000&quot;&gt;&lt;br&gt;&lt;/span&gt;&lt;/div&gt;&lt;div&gt;&lt;b&gt;&lt;span style=&quot;color: #000000&quot;&gt;MetadataReader&lt;/span&gt;&lt;/b&gt;&lt;/div&gt;" style="html=1;" vertex="1" parent="1">
          <mxGeometry x="440" y="962" width="110" height="50" as="geometry" />
        </mxCell>
        <mxCell id="4dsy0SderSoY3Ezzu2ZR-2" value="&lt;div&gt;«interface»&lt;span style=&quot;color: #000000&quot;&gt;&lt;/span&gt;&lt;span style=&quot;color: #000000&quot;&gt;&lt;br&gt;&lt;/span&gt;&lt;/div&gt;&lt;div&gt;&lt;b&gt;&lt;span style=&quot;color: #000000&quot;&gt;SimpleMetadataReader&lt;/span&gt;&lt;/b&gt;&lt;/div&gt;&lt;div&gt;&lt;span style=&quot;color: #000000&quot;&gt;&lt;/span&gt;&lt;/div&gt;" style="html=1;" vertex="1" parent="1">
          <mxGeometry x="420" y="1050" width="150" height="50" as="geometry" />
        </mxCell>
        <mxCell id="4dsy0SderSoY3Ezzu2ZR-3" value="" style="endArrow=block;dashed=1;endFill=0;endSize=12;html=1;rounded=0;exitX=0.5;exitY=0;exitDx=0;exitDy=0;entryX=0.5;entryY=1;entryDx=0;entryDy=0;" edge="1" parent="1" source="4dsy0SderSoY3Ezzu2ZR-2" target="4dsy0SderSoY3Ezzu2ZR-1">
          <mxGeometry width="160" relative="1" as="geometry">
            <mxPoint x="270" y="750" as="sourcePoint" />
            <mxPoint x="430" y="750" as="targetPoint" />
          </mxGeometry>
        </mxCell>
        <mxCell id="4dsy0SderSoY3Ezzu2ZR-4" value="&lt;div&gt;«interface»&lt;span style=&quot;color: #000000&quot;&gt;&lt;/span&gt;&lt;span style=&quot;color: #000000&quot;&gt;&lt;br&gt;&lt;/span&gt;&lt;/div&gt;&lt;div&gt;&lt;b&gt;&lt;span style=&quot;color: #000000&quot;&gt;ClassMetadata&lt;/span&gt;&lt;/b&gt;&lt;/div&gt;&lt;div&gt;&lt;b&gt;&lt;span style=&quot;color: #000000&quot;&gt;&lt;/span&gt;&lt;/b&gt;&lt;/div&gt;" style="html=1;" vertex="1" parent="1">
          <mxGeometry x="190" y="962" width="110" height="50" as="geometry" />
        </mxCell>
      </root>
    </mxGraphModel>
  </diagram>
</mxfile>
